<?xml version="1.0" standalone="no"?>
<!DOCTYPE svg PUBLIC "-//W3C//DTD SVG 20010904//EN"
 "http://www.w3.org/TR/2001/REC-SVG-20010904/DTD/svg10.dtd">
<svg version="1.0" xmlns="http://www.w3.org/2000/svg"
 width="200.000000pt" height="200.000000pt" viewBox="0 0 200.000000 200.000000"
 preserveAspectRatio="xMidYMid meet">

<g transform="translate(0.000000,200.000000) scale(0.100000,-0.100000)"
fill="#000000" stroke="none">
<path d="M0 1000 l0 -1000 1000 0 1000 0 0 1000 0 1000 -1000 0 -1000 0 0
-1000z m1230 920 c259 -66 481 -244 600 -480 21 -41 43 -94 50 -117 13 -42 14
-43 57 -43 32 0 43 -4 43 -15 0 -13 -61 -15 -485 -15 l-485 0 0 28 c0 35 46
82 78 79 12 0 22 -5 22 -9 0 -20 62 -6 86 19 30 33 31 89 1 87 -15 -2 -16 1
-5 15 7 9 8 13 4 9 -5 -4 -14 -1 -20 8 -26 35 -122 -12 -100 -48 4 -7 3 -8 -4
-4 -8 5 -12 -2 -12 -22 0 -18 -10 -37 -25 -52 l-25 -23 0 59 c1 55 3 60 32 79
17 11 34 26 36 34 3 9 0 11 -8 6 -9 -5 -11 -4 -6 4 4 6 12 9 17 6 5 -4 9 3 9
14 0 89 -107 132 -160 64 -29 -37 -26 -88 6 -118 15 -14 33 -25 40 -25 10 0
14 -16 14 -60 0 -33 -4 -60 -8 -60 -5 0 -18 10 -29 23 -23 26 -39 62 -22 51
21 -13 -2 40 -27 64 -31 27 -58 28 -95 1 -31 -22 -38 -55 -16 -78 10 -11 10
-13 0 -7 -24 13 -13 -13 14 -34 28 -22 90 -25 86 -4 -4 21 34 3 67 -31 19 -19
30 -41 28 -51 -3 -18 -25 -19 -486 -22 -416 -2 -482 0 -482 12 0 10 13 16 41
18 l41 3 33 83 c117 294 403 521 722 572 93 14 277 5 373 -20z m-335 -450 c3
-6 -1 -7 -9 -4 -18 7 -21 14 -7 14 6 0 13 -4 16 -10z m213 -20 c-7 -10 -14
-17 -17 -15 -4 4 18 35 25 35 2 0 -1 -9 -8 -20z m22 -54 c0 -2 -8 -10 -17 -17
-16 -13 -17 -12 -4 4 13 16 21 21 21 13z m-392 -409 l3 -128 -38 2 c-21 1 -48
-2 -60 -6 -38 -12 -63 25 -63 95 0 70 21 100 70 100 28 0 30 3 30 36 0 33 2
35 28 32 l27 -3 3 -128z m-238 88 c0 -23 -4 -25 -46 -25 -41 0 -45 -2 -42 -22
2 -19 10 -24 41 -26 29 -3 37 -7 37 -23 0 -16 -7 -19 -41 -19 -38 0 -40 -1
-37 -27 2 -23 8 -28 33 -29 50 -1 55 -3 55 -24 0 -18 -7 -20 -70 -20 l-70 0 0
120 0 120 70 0 c68 0 70 -1 70 -25z m890 0 c0 -23 -4 -25 -45 -25 -41 0 -45
-2 -45 -25 0 -22 4 -25 40 -25 36 0 40 -2 40 -25 0 -22 -4 -25 -40 -25 l-40 0
0 -45 c0 -41 -2 -45 -25 -45 l-25 0 0 120 0 120 70 0 c68 0 70 -1 70 -25z
m141 -25 c12 -27 25 -50 29 -50 4 0 17 23 29 50 18 41 26 50 47 50 29 0 27
-13 -7 -82 l-19 -38 30 -60 30 -60 -30 0 c-27 0 -34 6 -51 45 -11 24 -24 47
-30 50 -5 4 -20 -16 -31 -44 -19 -44 -26 -51 -50 -51 l-27 0 20 47 c11 26 24
52 29 58 6 7 0 30 -15 60 -31 63 -31 75 0 75 20 0 28 -9 46 -50z m-653 -77 c3
-65 5 -73 22 -73 18 0 20 7 20 75 0 73 1 75 25 75 25 0 25 0 25 -95 l0 -96
-32 0 c-18 0 -48 -1 -67 -1 -18 0 -37 5 -42 13 -10 17 -12 163 -2 173 4 4 16
6 28 4 18 -3 20 -11 23 -75z m282 -3 c0 -17 -7 -20 -50 -20 -43 0 -50 3 -50
20 0 17 7 20 50 20 43 0 50 -3 50 -20z m820 -229 c0 -6 -19 -11 -42 -13 -40
-3 -42 -4 -59 -56 -134 -395 -562 -663 -980 -614 -216 26 -401 115 -555 267
-101 101 -167 200 -215 323 l-32 82 -39 0 c-21 0 -38 5 -38 10 0 7 333 10 980
10 607 0 980 -4 980 -9z"/>
<path d="M885 1880 c-288 -45 -529 -224 -649 -481 -41 -88 -51 -119 -38 -119
5 0 19 26 30 58 82 222 290 418 523 492 197 62 436 43 619 -50 172 -86 335
-267 400 -442 12 -32 26 -58 31 -58 12 0 13 -3 -16 70 -99 251 -316 443 -579
510 -93 24 -238 32 -321 20z"/>
<path d="M640 950 c0 -43 3 -50 20 -50 17 0 20 7 20 50 0 43 -3 50 -20 50 -17
0 -20 -7 -20 -50z"/>
<path d="M190 721 c0 -7 14 -46 31 -86 96 -232 278 -397 526 -481 113 -38 320
-45 445 -15 264 63 480 246 585 494 18 43 33 83 33 88 0 24 -19 -5 -45 -68
-66 -160 -205 -322 -345 -402 -140 -81 -264 -114 -425 -114 -120 0 -203 17
-316 63 -191 79 -361 249 -439 438 -32 78 -50 107 -50 83z"/>
</g>
</svg>
